<?xml version="1.0" encoding="UTF-8"?>
<svg id="_레이어_2" data-name="레이어 2" xmlns="http://www.w3.org/2000/svg" viewBox="0 0 85 12.45">
  <defs>
    <style>
      .cls-1 {
        fill: lime;
        stroke-width: 0px;
      }
    </style>
  </defs>
  <g id="_레이어_1-2" data-name="레이어 1">
    <g>
      <path class="cls-1" d="M0,.21h6.3c2.73,0,4.78,1.89,4.78,4.4s-2.05,4.4-4.78,4.4h-3.24v3.23H0V.21ZM3.06,2.83v3.58h3.28c1.06,0,1.86-.78,1.86-1.79s-.8-1.79-1.86-1.79h-3.28Z"/>
      <path class="cls-1" d="M25.77,8.63h3.49c0,.78,1.03,1.41,2.33,1.41,1.16,0,2.13-.49,2.13-1.17,0-1.88-7.7-1.06-7.7-5.14C26.01,1.46,28.4,0,31.45,0s5.53,1.57,5.53,3.66h-3.49c0-.71-.9-1.26-2.06-1.26-1.05,0-1.93.42-1.93,1.1,0,1.9,7.7.87,7.7,5.06,0,2.35-2.48,3.89-5.66,3.89s-5.77-1.67-5.77-3.82Z"/>
      <path class="cls-1" d="M42.44,2.75h-4.38V.21h11.87v2.55h-4.38v9.48h-3.1V2.75Z"/>
      <path class="cls-1" d="M59.74.39h3.58l3.16,8.23,3.18-8.23h3.55v12.03h-2.71V4.4l-3.04,8.02h-2l-3.02-8.02v8.02h-2.71V.39Z"/>
      <path class="cls-1" d="M74.34.39h10.54v2.32h-7.2v2.62h6.44v2.32h-6.44v2.46h7.32v2.32h-10.66V.39Z"/>
      <g>
        <path class="cls-1" d="M53.78,7.87h0c.61,0,1.1-.49,1.1-1.1s-.49-1.1-1.1-1.1h0c-.61,0-1.1.49-1.1,1.1s.49,1.1,1.1,1.1Z"/>
        <path class="cls-1" d="M56.27,6.77c0,.64-.35,1.2-.88,1.49.73-.11,1.28-.74,1.28-1.49s-.56-1.38-1.28-1.49c.52.29.88.85.88,1.49Z"/>
        <path class="cls-1" d="M55.44,6.77c0,.52-.28.98-.7,1.23,0,0,.02,0,.03,0,.58-.12,1.01-.63,1.01-1.24s-.44-1.12-1.01-1.24c0,0-.02,0-.03,0,.42.25.7.71.7,1.23Z"/>
      </g>
      <path class="cls-1" d="M21.41,0h-5.84c-1.91,0-3.45,1.55-3.45,3.45v5.54c0,1.91,1.55,3.45,3.45,3.45h5.84c1.91,0,3.45-1.55,3.45-3.45V3.45c0-1.91-1.55-3.45-3.45-3.45ZM21.48,6.43l-4.58,2.64c-.16.09-.37-.02-.37-.21V3.58c0-.19.2-.31.37-.21l4.58,2.64c.16.09.16.33,0,.42Z"/>
    </g>
  </g>
</svg>